# xmcd
# 
# Track frame offsets:
#     150
#     21402
#     39805
#     57875
#     73015
#     88340
#     107665
#     129977
#     148250
#     160152
#     179710
#     200992
#     220180
#     239262
#     256070
#     271015
#     287767
# 
# Disc length: 4054
# 
# Revision: 2
# Processed by: cddbd v1.5.2PL0 Copyright (c) Steve Scherf et al.
# Submitted via: BonkEnc v1.0
# 
DISCID=020fd411
DTITLE=Vários - Estrela de Fogo-02
DYEAR=0
DGENRE=
TTITLE0=Daniel - Adoro Amar Você
TTITLE1=Leandro e Leonardo - Amor de Novela
TTITLE2=Chitãozinho e Xororó - Por Esse Amor
TTITLE3=Chrystian e Ralf - Sensível Demais
TTITLE4=Roberta Miranda - Seu Amor Ainda é Tudo
TTITLE5=Gian e Giovani - Eu Busco Uma Estrela
TTITLE6=Guilherme e Santiago - Mentira de Amor
TTITLE7=Zezé Dicamargo e Luciano - Vem Ficar Comigo
TTITLE8=Marciano - Louco Por Você
TTITLE9=Cleiton e camargo - Agenda Rabiscada
TTITLE10=Cheiro da Terra - Cowboy de Rodeio
TTITLE11=Marcelo Aguiar e Fernando - Dona da Verdade
TTITLE12=Leandro e Leonardo - Eu Juro
TTITLE13=Eric Henrique - Pele de Maçã
TTITLE14=Márcio Augusto e Ricardo - Vida de peão
TTITLE15=André e Adriano - Paixão de Peão
TTITLE16=Cheiro da Terra - Estrela de Fogo
EXTD=
EXTT0=
EXTT1=
EXTT2=
EXTT3=
EXTT4=
EXTT5=
EXTT6=
EXTT7=
EXTT8=
EXTT9=
EXTT10=
EXTT11=
EXTT12=
EXTT13=
EXTT14=
EXTT15=
EXTT16=
PLAYORDER=
